<svg xmlns="http://www.w3.org/2000/svg" data-name="Line Gradient" viewBox="0 0 64 64">
  <defs>
    <linearGradient id="a" x1="6.36" x2="57.635" y1="31.997" y2="31.997" gradientUnits="userSpaceOnUse">
      <stop offset="0" stop-color="#ffde00"/>
      <stop offset="1" stop-color="#fd5900"/>
    </linearGradient>
  </defs>
  <path d="M38.13 45.402c-1.568-1.047-6.312-4.209-7.951-5.301a2.16 2.16 0 0 0-3.335 1.784v10.603a2.159 2.159 0 0 0 3.335 1.784l7.951-5.301a2.159 2.159 0 0 0 0-3.57Zm-1.109 1.905-7.952 5.3a.145.145 0 0 1-.225-.12V41.886a.134.134 0 0 1 .076-.128.139.139 0 0 1 .15.008l7.951 5.3a.145.145 0 0 1 0 .242ZM8.363 26.045v30.976a2.987 2.987 0 0 0 2.984 2.983h43.304a2.987 2.987 0 0 0 2.984-2.983V25.914a1 1 0 0 0-1-1H16.958l38.325-10.269a1.005 1.005 0 0 0 .707-1.225l-1.93-7.2a3.014 3.014 0 0 0-3.673-2.121c-13.343 3.573-28.448 7.624-41.798 11.2a3.014 3.014 0 0 0-2.121 3.673ZM23.107 13.48l-5.271 9.13-6.4 1.714 5.271-9.13Zm9.133-2.447-5.272 9.13-6.4 1.714 5.272-9.13Zm9.131-2.447-5.27 9.13-6.4 1.714 5.271-9.13Zm13.28 49.42H11.347a.985.985 0 0 1-.984-.984V36.368h45.272v20.653a.985.985 0 0 1-.984.983Zm.984-23.637H10.363v-7.454h45.272ZM53.8 12.972l-5.835 1.564 4.271-7.398Zm-3.296-6.834-5.271 9.13-6.4 1.715 5.27-9.13ZM8.5 17.696a.993.993 0 0 1 .606-.466l4.869-1.304-4.271 7.397-1.305-4.868a.994.994 0 0 1 .1-.76Z" style="fill:url(#a)"/>
</svg>
